<svg width="176" height="140" viewBox="0 0 176 140" fill="none" xmlns="http://www.w3.org/2000/svg">
<path d="M1.7788 125.247V121.328H4.88628V105.521H1.7788V101.603H11.5066C14.6816 101.603 17.091 102.413 18.7348 104.035C20.4012 105.633 21.2343 108.02 21.2343 111.195V115.654C21.2343 118.829 20.4012 121.227 18.7348 122.848C17.091 124.447 14.6816 125.247 11.5066 125.247H1.7788ZM9.34483 121.193H11.5741C13.3755 121.193 14.6928 120.72 15.526 119.775C16.3592 118.829 16.7758 117.5 16.7758 115.789V111.06C16.7758 109.326 16.3592 107.998 15.526 107.075C14.6928 106.129 13.3755 105.656 11.5741 105.656H9.34483V121.193ZM22.0455 125.247V108.493H26.3014V125.247H22.0455ZM24.1734 106.534C23.4078 106.534 22.7548 106.286 22.2144 105.791C21.6965 105.296 21.4375 104.643 21.4375 103.832C21.4375 103.021 21.6965 102.368 22.2144 101.873C22.7548 101.378 23.4078 101.13 24.1734 101.13C24.9616 101.13 25.6146 101.378 26.1325 101.873C26.6504 102.368 26.9094 103.021 26.9094 103.832C26.9094 104.643 26.6504 105.296 26.1325 105.791C25.6146 106.286 24.9616 106.534 24.1734 106.534ZM34.9356 125.719C32.7514 125.719 30.9612 125.247 29.5651 124.301C28.169 123.355 27.3245 122.004 27.0318 120.248L30.9499 119.234C31.1076 120.022 31.3665 120.642 31.7268 121.092C32.1096 121.542 32.5712 121.869 33.1117 122.072C33.6746 122.252 34.2826 122.342 34.9356 122.342C35.9264 122.342 36.6582 122.173 37.1311 121.835C37.604 121.475 37.8404 121.036 37.8404 120.518C37.8404 120 37.6153 119.606 37.1649 119.336C36.7145 119.043 35.994 118.806 35.0032 118.626L34.0574 118.457C32.8865 118.232 31.8169 117.928 30.8486 117.545C29.8803 117.14 29.1035 116.588 28.518 115.89C27.9325 115.192 27.6398 114.292 27.6398 113.188C27.6398 111.522 28.2478 110.25 29.4637 109.371C30.6797 108.471 32.2785 108.02 34.2601 108.02C36.1291 108.02 37.6828 108.437 38.9213 109.27C40.1598 110.103 40.9704 111.195 41.3532 112.546L37.4013 113.762C37.2212 112.907 36.8496 112.299 36.2867 111.938C35.7463 111.578 35.0707 111.398 34.2601 111.398C33.4494 111.398 32.8302 111.544 32.4023 111.837C31.9745 112.107 31.7606 112.49 31.7606 112.986C31.7606 113.526 31.9858 113.931 32.4361 114.202C32.8865 114.449 33.4945 114.641 34.2601 114.776L35.2058 114.945C36.4668 115.17 37.604 115.474 38.6173 115.857C39.6531 116.217 40.4638 116.746 41.0492 117.444C41.6572 118.12 41.9612 119.043 41.9612 120.214C41.9612 121.97 41.3195 123.333 40.0359 124.301C38.7749 125.247 37.0748 125.719 34.9356 125.719ZM50.5208 125.719C48.8995 125.719 47.4246 125.382 46.096 124.706C44.79 124.031 43.7541 123.051 42.9885 121.768C42.2229 120.484 41.8401 118.93 41.8401 117.106V116.633C41.8401 114.81 42.2229 113.256 42.9885 111.972C43.7541 110.689 44.79 109.709 46.096 109.034C47.4246 108.358 48.8995 108.02 50.5208 108.02C52.1195 108.02 53.4931 108.302 54.6416 108.865C55.79 109.428 56.7132 110.205 57.4113 111.195C58.1318 112.164 58.6047 113.267 58.8299 114.506L54.7091 115.384C54.619 114.708 54.4164 114.1 54.1011 113.56C53.7859 113.019 53.3355 112.591 52.75 112.276C52.1871 111.961 51.4778 111.803 50.6221 111.803C49.7664 111.803 48.9895 111.995 48.2915 112.378C47.616 112.738 47.0755 113.29 46.6702 114.033C46.2874 114.753 46.096 115.643 46.096 116.701V117.039C46.096 118.097 46.2874 118.998 46.6702 119.741C47.0755 120.462 47.616 121.013 48.2915 121.396C48.9895 121.756 49.7664 121.936 50.6221 121.936C51.9056 121.936 52.8739 121.61 53.5269 120.957C54.2025 120.281 54.6303 119.403 54.8104 118.322L58.9312 119.302C58.6385 120.495 58.1318 121.587 57.4113 122.578C56.7132 123.546 55.79 124.312 54.6416 124.875C53.4931 125.438 52.1195 125.719 50.5208 125.719ZM67.3734 125.719C65.707 125.719 64.2096 125.382 62.881 124.706C61.5525 124.031 60.5054 123.051 59.7398 121.768C58.9742 120.484 58.5913 118.942 58.5913 117.14V116.6C58.5913 114.798 58.9742 113.256 59.7398 111.972C60.5054 110.689 61.5525 109.709 62.881 109.034C64.2096 108.358 65.707 108.02 67.3734 108.02C69.0397 108.02 70.5371 108.358 71.8657 109.034C73.1942 109.709 74.2413 110.689 75.0069 111.972C75.7726 113.256 76.1554 114.798 76.1554 116.6V117.14C76.1554 118.942 75.7726 120.484 75.0069 121.768C74.2413 123.051 73.1942 124.031 71.8657 124.706C70.5371 125.382 69.0397 125.719 67.3734 125.719ZM67.3734 121.936C68.6794 121.936 69.7603 121.52 70.6159 120.687C71.4716 119.831 71.8995 118.615 71.8995 117.039V116.701C71.8995 115.125 71.4716 113.92 70.6159 113.087C69.7828 112.231 68.7019 111.803 67.3734 111.803C66.0673 111.803 64.9864 112.231 64.1308 113.087C63.2751 113.92 62.8472 115.125 62.8472 116.701V117.039C62.8472 118.615 63.2751 119.831 64.1308 120.687C64.9864 121.52 66.0673 121.936 67.3734 121.936ZM80.0619 125.247L74.7251 108.493H79.2512L83.1356 122.139H83.7436L87.6279 108.493H92.154L86.8173 125.247H80.0619ZM99.1527 125.719C97.4864 125.719 96.0114 125.37 94.7279 124.672C93.4669 123.952 92.4761 122.95 91.7555 121.666C91.0575 120.36 90.7085 118.829 90.7085 117.073V116.667C90.7085 114.911 91.0575 113.391 91.7555 112.107C92.4536 110.801 93.4331 109.799 94.6941 109.101C95.9551 108.381 97.4188 108.02 99.0851 108.02C100.729 108.02 102.159 108.392 103.375 109.135C104.591 109.856 105.537 110.869 106.212 112.175C106.888 113.458 107.225 114.956 107.225 116.667V118.12H95.0319C95.0769 119.268 95.5048 120.203 96.3154 120.923C97.1261 121.644 98.1169 122.004 99.2878 122.004C100.481 122.004 101.359 121.745 101.922 121.227C102.485 120.709 102.913 120.135 103.206 119.505L106.685 121.328C106.37 121.914 105.908 122.556 105.3 123.254C104.715 123.929 103.927 124.515 102.936 125.01C101.945 125.483 100.684 125.719 99.1527 125.719ZM95.0657 114.945H102.902C102.812 113.976 102.418 113.199 101.72 112.614C101.044 112.029 100.155 111.736 99.0514 111.736C97.903 111.736 96.991 112.029 96.3154 112.614C95.6399 113.199 95.2233 113.976 95.0657 114.945ZM107.973 125.247V108.493H112.162V110.385H112.77C113.018 109.709 113.423 109.214 113.986 108.899C114.571 108.583 115.247 108.426 116.012 108.426H118.039V112.209H115.945C114.864 112.209 113.975 112.501 113.276 113.087C112.578 113.65 112.229 114.528 112.229 115.721V125.247H107.973ZM120.15 132.002V128.287H129.269C129.9 128.287 130.215 127.949 130.215 127.273V123.051H129.607C129.427 123.434 129.145 123.817 128.763 124.199C128.38 124.582 127.862 124.898 127.209 125.145C126.556 125.393 125.723 125.517 124.709 125.517C123.403 125.517 122.255 125.224 121.264 124.639C120.296 124.031 119.542 123.197 119.001 122.139C118.461 121.081 118.19 119.865 118.19 118.491V108.493H122.446V118.153C122.446 119.414 122.75 120.36 123.358 120.991C123.989 121.621 124.878 121.936 126.027 121.936C127.333 121.936 128.346 121.509 129.067 120.653C129.787 119.775 130.148 118.559 130.148 117.005V108.493H134.403V128.219C134.403 129.367 134.066 130.279 133.39 130.955C132.715 131.653 131.814 132.002 130.688 132.002H120.15Z" fill="black"/>
<g filter="url(#filter0_d_50_186)">
<path d="M133.652 112.049C133.652 111.268 134.285 110.635 135.066 110.635H157.534C158.315 110.635 158.948 111.268 158.948 112.049V121.243C158.948 122.024 158.315 122.657 157.534 122.657H135.066C134.285 122.657 133.652 122.024 133.652 121.243V120.098C133.652 119.808 133.562 119.524 133.395 119.286L132.113 117.458C131.771 116.971 131.771 116.321 132.113 115.834L133.395 114.006C133.562 113.768 133.652 113.484 133.652 113.194V112.049Z" fill="black"/>
<path d="M135.066 110.885H157.534C158.177 110.885 158.698 111.406 158.698 112.049V121.243C158.698 121.886 158.177 122.407 157.534 122.407H135.066C134.423 122.407 133.902 121.886 133.902 121.243V120.098C133.902 119.756 133.796 119.422 133.6 119.142L132.318 117.315C132.036 116.913 132.036 116.379 132.318 115.977L133.6 114.149C133.796 113.869 133.902 113.536 133.902 113.194V112.049C133.902 111.406 134.423 110.885 135.066 110.885Z" stroke="white" stroke-width="0.5"/>
</g>
<path d="M137.484 119.931V118.856H138.337V114.516H137.484V113.441H140.154C141.025 113.441 141.687 113.663 142.138 114.108C142.596 114.547 142.824 115.202 142.824 116.074V117.298C142.824 118.169 142.596 118.828 142.138 119.273C141.687 119.712 141.025 119.931 140.154 119.931H137.484ZM139.56 118.819H140.172C140.667 118.819 141.029 118.689 141.257 118.429C141.486 118.169 141.6 117.805 141.6 117.335V116.037C141.6 115.561 141.486 115.196 141.257 114.943C141.029 114.683 140.667 114.553 140.172 114.553H139.56V118.819ZM144.957 119.931V113.441H149.129V114.553H146.181V116.102H148.87V117.214H146.181V118.819H149.185V119.931H144.957ZM150.796 119.931L152.697 116.658L150.814 113.441H152.205L153.494 115.787H153.661L154.95 113.441H156.34L154.458 116.658L156.359 119.931H154.968L153.661 117.53H153.494L152.187 119.931H150.796Z" fill="white"/>
<circle cx="133.732" cy="116.646" r="0.861926" fill="white"/>
<path d="M33.7114 49.4788H47.1491V92.0941H33.7114V49.4788Z" fill="black"/>
<path d="M51.1797 26.2847H64.6174V92.2464H51.1797V26.2847Z" fill="black"/>
<path d="M68.6487 15.6777H82.0864V92.1551H68.6487V15.6777Z" fill="black"/>
<path d="M68.6487 13.0513V0.381901C68.6487 0.381901 124.125 -3.44196 124.125 43.7805L121.78 44.3564C121.78 8.02957 68.6487 13.0513 68.6487 13.0513Z" fill="black"/>
<path d="M83.8921 77.1818V92.1548C83.8921 92.1548 124.126 92.1549 124.126 51.267L121.781 51.8429C121.781 77.1818 83.8921 77.1818 83.8921 77.1818Z" fill="black"/>
<path d="M120.96 46.0839L125.65 44.9321V47.2357V49.5392L120.96 50.691V46.0839Z" fill="black"/>
<path d="M118.592 43.4748C118.861 43.1584 119.255 42.9761 119.671 42.9761H124.169C124.95 42.9761 125.583 43.6093 125.583 44.3905V50.8392C125.583 51.6204 124.95 52.2536 124.169 52.2536H119.671C119.255 52.2536 118.861 52.0713 118.592 51.7549L115.076 47.6148L118.592 43.4748Z" fill="black"/>
<defs>
<filter id="filter0_d_50_186" x="116.361" y="95.1385" width="59.1523" height="44.0834" filterUnits="userSpaceOnUse" color-interpolation-filters="sRGB">
<feFlood flood-opacity="0" result="BackgroundImageFix"/>
<feColorMatrix in="SourceAlpha" type="matrix" values="0 0 0 0 0 0 0 0 0 0 0 0 0 0 0 0 0 0 127 0" result="hardAlpha"/>
<feOffset dx="0.534345" dy="0.534345"/>
<feGaussianBlur stdDeviation="8.01518"/>
<feComposite in2="hardAlpha" operator="out"/>
<feColorMatrix type="matrix" values="0 0 0 0 0.716667 0 0 0 0 0.716667 0 0 0 0 0.716667 0 0 0 0.1 0"/>
<feBlend mode="normal" in2="BackgroundImageFix" result="effect1_dropShadow_50_186"/>
<feBlend mode="normal" in="SourceGraphic" in2="effect1_dropShadow_50_186" result="shape"/>
</filter>
</defs>
</svg>
